<?xml version="1.0" encoding="UTF-8"?>
<svg xmlns="http://www.w3.org/2000/svg" version="1.1" viewBox="0 0 400 500">
  <!-- Generator: Adobe Illustrator 30.2.1, SVG Export Plug-In . SVG Version: 2.1.1 Build 1)  -->
  <defs>
    <style>
      .st0 {
        fill: #fff;
      }

      .st1 {
        display: none;
      }
    </style>
  </defs>
  <g id="Layer_2" class="st1">
    <g>
      <rect x="890.96" y="161.04" width="38.96" height="55.29" rx="16.81" ry="16.81"/>
      <rect x="890.96" y="223.56" width="38.96" height="55.29" rx="16.81" ry="16.81"/>
      <rect x="890.96" y="286.09" width="38.96" height="55.29" rx="16.81" ry="16.81"/>
      <rect x="953.96" y="348.61" width="38.96" height="55.29" rx="16.81" ry="16.81"/>
      <rect x="890.96" y="411.13" width="38.96" height="55.29" rx="16.81" ry="16.81"/>
      <rect x="890.96" y="473.66" width="38.96" height="55.29" rx="16.81" ry="16.81"/>
      <rect x="890.96" y="536.18" width="38.96" height="55.29" rx="16.81" ry="16.81"/>
      <rect x="890.96" y="598.7" width="38.96" height="55.29" rx="16.81" ry="16.81"/>
      <rect x="929.84" y="161.04" width="38.96" height="55.29" rx="16.81" ry="16.81"/>
      <rect x="929.84" y="223.56" width="38.96" height="55.29" rx="16.81" ry="16.81"/>
      <rect x="929.84" y="286.09" width="38.96" height="55.29" rx="16.81" ry="16.81"/>
      <rect x="992.84" y="348.61" width="38.96" height="55.29" rx="16.81" ry="16.81"/>
      <rect x="929.84" y="411.13" width="38.96" height="55.29" rx="16.81" ry="16.81"/>
      <rect x="993.84" y="473.66" width="38.96" height="55.29" rx="16.81" ry="16.81"/>
      <rect x="929.84" y="536.18" width="38.96" height="55.29" rx="16.81" ry="16.81"/>
      <rect x="929.84" y="598.7" width="38.96" height="55.29" rx="16.81" ry="16.81"/>
      <rect x="968.94" y="161.04" width="38.96" height="55.29" rx="16.81" ry="16.81"/>
      <rect x="968.94" y="223.56" width="38.96" height="55.29" rx="16.81" ry="16.81"/>
      <rect x="1031.94" y="286.09" width="38.96" height="55.29" rx="16.81" ry="16.81"/>
      <rect x="1031.94" y="348.61" width="38.96" height="55.29" rx="16.81" ry="16.81"/>
      <rect x="968.94" y="411.13" width="38.96" height="55.29" rx="16.81" ry="16.81"/>
      <rect x="1032.94" y="473.66" width="38.96" height="55.29" rx="16.81" ry="16.81"/>
      <rect x="968.94" y="536.18" width="38.96" height="55.29" rx="16.81" ry="16.81"/>
      <rect x="968.94" y="598.7" width="38.96" height="55.29" rx="16.81" ry="16.81"/>
      <rect x="1070.03" y="161.04" width="38.96" height="55.29" rx="16.81" ry="16.81"/>
      <rect x="1007.03" y="223.56" width="38.96" height="55.29" rx="16.81" ry="16.81"/>
      <rect x="1070.03" y="286.09" width="38.96" height="55.29" rx="16.81" ry="16.81"/>
      <rect x="1070.03" y="348.61" width="38.96" height="55.29" rx="16.81" ry="16.81"/>
      <rect x="1007.03" y="411.13" width="38.96" height="55.29" rx="16.81" ry="16.81"/>
      <rect x="1071.03" y="473.66" width="38.96" height="55.29" rx="16.81" ry="16.81"/>
      <rect x="1007.03" y="536.18" width="38.96" height="55.29" rx="16.81" ry="16.81"/>
      <rect x="1071.03" y="598.7" width="38.96" height="55.29" rx="16.81" ry="16.81"/>
      <rect x="1194.2" y="161.04" width="38.96" height="55.29" rx="16.81" ry="16.81"/>
      <rect x="1170.2" y="223.56" width="38.96" height="55.29" rx="16.81" ry="16.81"/>
      <rect x="1170.2" y="286.09" width="38.96" height="55.29" rx="16.81" ry="16.81"/>
      <rect x="1170.2" y="348.61" width="38.96" height="55.29" rx="16.81" ry="16.81"/>
      <rect x="1170.2" y="411.13" width="38.96" height="55.29" rx="16.81" ry="16.81"/>
      <rect x="1170.2" y="473.66" width="38.96" height="55.29" rx="16.81" ry="16.81"/>
      <rect x="1194.2" y="536.18" width="38.96" height="55.29" rx="16.81" ry="16.81"/>
      <rect x="1170.2" y="598.7" width="38.96" height="55.29" rx="16.81" ry="16.81"/>
      <rect x="1233.32" y="161.04" width="38.96" height="55.29" rx="16.81" ry="16.81"/>
      <rect x="1233.32" y="223.56" width="38.96" height="55.29" rx="16.81" ry="16.81"/>
      <rect x="1209.32" y="286.09" width="38.96" height="55.29" rx="16.81" ry="16.81"/>
      <rect x="1209.32" y="348.61" width="38.96" height="55.29" rx="16.81" ry="16.81"/>
      <rect x="1233.32" y="411.13" width="38.96" height="55.29" rx="16.81" ry="16.81"/>
      <rect x="1209.32" y="473.66" width="38.96" height="55.29" rx="16.81" ry="16.81"/>
      <rect x="1233.32" y="536.18" width="38.96" height="55.29" rx="16.81" ry="16.81"/>
      <rect x="1209.32" y="598.7" width="38.96" height="55.29" rx="16.81" ry="16.81"/>
      <rect x="1106.58" y="161.04" width="38.96" height="55.29" rx="16.81" ry="16.81"/>
      <rect x="1106.58" y="223.56" width="38.96" height="55.29" rx="16.81" ry="16.81"/>
      <rect x="1106.58" y="286.09" width="38.96" height="55.29" rx="16.81" ry="16.81"/>
      <rect x="1106.58" y="348.61" width="38.96" height="55.29" rx="16.81" ry="16.81"/>
      <rect x="1043.58" y="411.13" width="38.96" height="55.29" rx="16.81" ry="16.81"/>
      <rect x="1107.58" y="473.66" width="38.96" height="55.29" rx="16.81" ry="16.81"/>
      <rect x="1106.58" y="536.18" width="38.96" height="55.29" rx="16.81" ry="16.81"/>
      <rect x="1107.58" y="598.7" width="38.96" height="55.29" rx="16.81" ry="16.81"/>
      <rect x="866.79" y="134.85" width="24.68" height="548.05"/>
      <rect x="1145.37" y="134.85" width="24.68" height="548.05"/>
      <rect x="1271.99" y="134.85" width="24.68" height="548.05"/>
      <rect x="866.79" y="185.5" width="429.87" height="6.49"/>
      <rect x="866.79" y="248.02" width="429.87" height="6.49"/>
      <rect x="866.79" y="310.55" width="429.87" height="6.49"/>
      <rect x="866.79" y="373.07" width="429.87" height="6.49"/>
      <rect x="866.79" y="435.59" width="429.87" height="6.49"/>
      <rect x="866.79" y="498.12" width="429.87" height="6.49"/>
      <rect x="866.79" y="560.64" width="429.87" height="6.49"/>
      <rect x="866.79" y="623.16" width="429.87" height="6.49"/>
      <rect x="866.79" y="134.85" width="429.87" height="24.68"/>
      <rect x="866.79" y="662.59" width="429.87" height="24.68"/>
    </g>
  </g>
  <g id="Layer_3">
    <path class="st0" d="M400,0v500H0V0h400ZM131.36,45.83h57.74s.05-7.61.05-7.61c.05-8.08,7.14-14.53,15.42-14.54h5.4c6.13-.01,11.64,3.67,14.1,9,.05.11.23.33.26.27l.18-.37c2.54-5.23,7.77-8.85,13.79-8.88l4.93-.03c7.53-.21,13.87,4.55,15.85,11.64l.08-12.94H23.02s.02,12.24.02,12.24c2.09-6.44,7.93-10.86,14.92-10.94l5.37.02c7.84.03,14.12,5.64,15.36,13.16,1.37-7.67,7.63-13.17,15.46-13.16h5.35c8.31,0,14.82,6.28,15.51,14.41.53-7.85,6.9-14.34,15.09-14.39l5.82-.03c8.25.15,15.29,6.47,15.36,14.56l.07,7.61ZM340.98,37.72c1-7.94,7.18-13.98,15.25-14.02l5.13-.03c7.38-.12,13.63,4.53,15.61,11.57l.08-12.87h-94.79s-.01,23.46-.01,23.46h22.39s.01-7.39.01-7.39c.3-8.14,7.01-14.7,15.4-14.75l4.91-.03c8.41-.05,15.17,5.91,16.03,14.06ZM115.48,80.25c7.26-.04,13.42,4.52,15.42,11.45,1.92-6.6,7.69-11.4,14.73-11.42l6.19-.02c8.12.39,14.81,6.68,14.93,14.65l.11,7.5h56.25s.04-7.49.04-7.49c.04-8.14,7.07-14.51,15.37-14.67l5.76.03c7.14.04,12.73,4.83,14.84,11.56v-29.69c-2.11,6.91-7.93,11.51-15.22,11.63h-5.16c-6.36-.07-11.87-3.63-14.47-9.4-2.63,5.8-8.16,9.39-14.53,9.4h-5.18c-8.22-.15-15.35-6.41-15.4-14.49l-.04-7.54h-57.76s-.08,7.76-.08,7.76c-.08,8.16-7.49,14.3-15.79,14.28h-4.71c-8.42-.03-15.16-6.24-15.76-14.38-.74,8.32-7.51,14.4-15.95,14.37h-4.69c-7.87-.06-14.25-5.37-15.66-13.1-1.33,7.21-7,12.41-14.36,13.06l-6.17.05c-7.06-.05-12.94-4.37-15.15-10.92v28.26c2.22-6.46,7.96-10.79,14.93-10.88h4.92c7.96-.07,14.4,5.34,15.82,13.07,1.41-7.61,7.65-13.04,15.44-13.06l5.55-.02c8.18.27,14.55,6.26,15.3,14.33.6-7.88,7-14.02,15.15-14.32h5.32ZM377,91.76v-29.55c-1.91,6.48-7.31,11.01-14.16,11.54h-7.36c-7.8-.69-13.6-6.4-14.51-14.14-.74,8.09-7.44,14.17-15.78,14.18h-4.7c-8.62.02-15.63-6.51-15.84-14.93l-.03-7.1h-22.37s.07,41.95.07,41.95c1.23-7.52,7.28-13.39,15.21-13.42l5.95-.02c8.4.29,15.11,6.87,15.16,15.09l.04,7.06h22.36s.03-7.06.03-7.06c.03-8.2,6.77-14.86,15.19-15.08,2.04-.05,3.93-.05,5.95,0,7.05.2,12.73,4.73,14.8,11.48ZM79.88,136.87c8.5.29,15.04,7.04,15.08,15.17l.03,6.95h58.66s.03-7.39.03-7.39c.03-8.17,7.04-14.61,15.37-14.78l5.38.02c7.22.03,13.32,4.83,15.09,11.56,1.85-6.85,7.9-11.46,15.05-11.58l5.37.02c6.3.03,11.75,3.7,14.31,9.38,2.54-5.63,7.96-9.35,14.26-9.38l5.37-.03c7,.1,13.01,4.54,14.97,11.13.01.51.07.42.31-.04v-28.67c-.27-.4-.35-.49-.24-.19l-.26.75c-1.91,5.58-6.9,9.79-13.03,10.4-2.85.28-5.6.29-8.47.04-7.73-.68-13.98-6.92-14.03-14.45l-.05-7.46h-56.29s-.05,7-.05,7c-.06,8.43-7.18,15.06-15.78,15.03h-4.7c-7.26,0-13.37-4.55-15.38-11.45-2.01,6.88-8.04,11.37-15.21,11.45h-5.14c-8.37-.13-15.03-6.4-15.54-14.47-.67,8.28-7.33,14.39-15.74,14.48h-4.9c-7.92-.03-14.32-5.44-15.69-13.22-1.22,7.55-7.52,13.05-15.36,13.21l-5.82-.03c-6.84-.04-12.44-4.65-14.49-10.95v28.41c2.11-6.4,7.79-10.76,14.71-10.95h5.59c7.84.14,14.13,5.63,15.36,13.17,1.37-7.58,7.49-12.97,15.24-13.15,1.99-.05,3.78-.06,5.95.01ZM339.62,136.85c8.65.02,15.36,6.91,15.43,15.18l.03,6.96h21.98s-.04-40.12-.04-40.12c-2.18,6.99-8.22,11.55-15.65,11.51l-4.69-.02c-8.55-.05-15.57-6.68-15.61-15.03l-.03-7h-22.36s-.03,6.79-.03,6.79c-.04,8.5-7.07,15.27-15.79,15.25h-4.68c-8.14.02-14.57-5.62-15.85-13.4v33.35c1.2-7.84,7.87-13.75,16.28-13.47h4.69c8.14.21,14.52,6.14,15.36,14.04,1.02-8.12,7.46-14.06,15.7-14.04h5.27ZM189.52,204.83c2.07-6.85,7.9-11.19,14.85-11.42l5.78.03c5.99.03,11.25,3.56,13.82,8.8.08.16.25.5.31.41.04-.06.2-.29.29-.46,2.41-4.96,7.71-8.67,13.58-8.73l5.07-.05c7.3-.07,13.66,4.31,15.69,11.28-.1.2.12-.09.27-.3l-.07-29.05c-2.12,6.87-7.9,11.58-15.22,11.61l-5.15.02c-6.36-.09-11.88-3.63-14.47-9.42-2.63,5.81-8.16,9.35-14.54,9.41h-5.39c-7.04-.26-12.93-4.77-14.82-11.55-1.83,6.75-7.87,11.51-15.08,11.54l-5.17.02c-8.31-.08-15.5-6.34-15.58-14.5l-.07-7.55h-58.63s-.04,6.89-.04,6.89c-.05,8.42-7.03,15.17-15.66,15.15h-5.15c-7.79-.03-14.04-5.47-15.43-13.1-1.4,7.66-7.71,13.02-15.6,13.1h-5.37c-6.91-.23-12.53-4.52-14.71-10.91v39.53s58.04,0,58.04,0l.04-7.27c.05-8.17,6.88-14.61,15.21-14.88l5.92.02c7.77.03,14.01,5.81,15.11,13.42,1.01-7.53,7.3-13.19,15.15-13.44h6.1c8.01.4,14.27,6.34,14.99,14.13.92-8.01,7.21-13.85,15.32-14.13h5.92c7.07.26,12.81,4.92,14.7,11.42ZM297.43,193.42h6.03c8.09.3,14.43,6.28,15.18,14.13.95-8,7.19-13.88,15.32-14.12,2-.06,3.89-.05,5.9,0,8.42.24,15.06,6.87,15.18,15.06l.03,7.07h21.98s0-50.66,0-50.66h-21.97s-.03,6.89-.03,6.89c-.1,8.39-6.95,15.03-15.56,15.15h-5.14c-8.22-.03-14.63-5.89-15.69-14-.91,8.05-7.5,13.98-15.8,14h-4.93c-8.13-.08-14.38-5.85-15.6-13.42v33.34c1.2-7.5,7.18-13.12,15.11-13.45ZM259.18,272.15v-39.73c-.24-.48-.31-.55-.3-.07-2.1,7.15-8.8,11.56-16.34,11.2-1.89-.09-3.68.08-5.56-.13-5.53-.61-10.16-3.98-12.5-8.85-.07-.14-.22-.39-.26-.31l-.22.4c-2.75,5-7.97,8.89-14.03,8.83-2.1.04-3.99.09-6.06-.01-6.85-.36-12.43-4.82-14.38-11.41-1.94,6.71-7.9,11.39-15.1,11.44l-4.68.04c-8.33.06-15.07-5.62-16.16-13.98-.85,7.87-7.41,13.97-15.78,13.96h-5.15c-7.89-.18-14.25-5.83-15.32-13.39-1.17,7.74-7.6,13.36-15.5,13.38h-5.14c-8.55-.06-15.56-6.67-15.61-15.03l-.04-7H23s.02,39.43.02,39.43c2.22-6.56,8-10.81,14.95-10.93h5.58c7.75.27,13.91,5.71,15.14,13.18,1.37-7.7,7.63-13.04,15.46-13.18h4.89c8.48-.05,15.26,6.09,15.96,14.43.55-8.05,7.18-14.33,15.54-14.42l4.92-.02c7.25-.02,13.38,4.49,15.44,11.43,1.99-6.7,7.85-11.37,14.93-11.4l5.15-.02c6.45-.02,12.05,3.62,14.65,9.4,2.59-5.73,8.06-9.36,14.37-9.38l5.16-.02c8.32.05,15.55,6.39,15.59,14.55l.04,7.61h58.39ZM303.67,250.04c8.45.35,14.92,7.07,14.96,15.15l.04,6.96h22.36s.03-7.17.03-7.17c.03-8.26,6.94-14.81,15.38-14.99h5.59c7.15.21,12.97,4.75,14.98,11.59l.05-40.09h-21.98s-.03,6.78-.03,6.78c-.04,8.41-6.93,15.16-15.57,15.25l-4.67.02c-8.43.04-15.14-5.78-16.16-14.11-.8,7.91-7.21,13.86-15.35,14.09h-5.35c-8.06-.07-14.35-5.72-15.63-13.4v33.42c1.14-7.64,7.38-13.4,15.4-13.54,1.99-.03,3.78-.07,5.96.02ZM23.38,316.66c2.23-5.98,7.92-10.07,14.4-10.06h5.71c8.45,0,15.2,6.84,15.27,15.08l.06,7.06h59.34s0-6.4,0-6.4c.01-8.7,6.84-15.8,15.83-15.75l4.46-.02c8.31-.03,14.97,5.66,16.08,13.83,1.07-7.86,7.28-13.52,15.25-13.81l5.92.02c7.05.03,12.91,4.87,14.72,11.47,1.97-6.76,7.81-11.47,14.86-11.48h5.71c6.24,0,11.68,3.74,14.2,9.44,2.34-5.52,7.77-9.41,14.03-9.43l5.94-.02c5.82.21,10.93,3.4,13.57,8.48.16.44.25.77.42.15v-37.13s-58.39,0-58.39,0l-.04,7.55c-.04,8.14-7.28,14.44-15.58,14.49l-5.62-.04c-6.14-.04-11.38-3.78-13.91-9.36-2.62,5.8-8.21,9.4-14.65,9.4l-5.15-.02c-7.08-.03-12.9-4.66-14.92-11.38-2.07,6.84-8.04,11.38-15.21,11.39h-5.38c-8.25-.24-14.73-6.41-15.31-14.36-.72,8.14-7.23,14.19-15.5,14.37h-5.37c-7.79-.15-14.04-5.45-15.43-13.09-1.41,7.73-7.86,13.14-15.83,13.1h-5.15c-6.9-.22-12.54-4.54-14.71-10.91l-.02,28.12.37-.67ZM339.58,306.59c8.59,0,15.34,6.8,15.46,15.08l.08,7.07h21.94s0-39.87,0-39.87c-.16-.35-.21-.1-.27.21-1.97,6.59-8.1,11.09-15.17,11.05l-5.38-.03c-8.43-.05-15.13-6.92-15.16-15.12l-.03-6.89h-22.37s-.03,6.89-.03,6.89c-.04,8.38-6.97,15.04-15.55,15.15l-5.37-.02c-8.01-.03-14.21-5.87-15.39-13.48v33.42c1.21-7.58,7.32-13.18,15.23-13.45h6.23c7.97.48,14.11,6.39,14.86,14.14.95-8.07,7.31-14.12,15.5-14.13h5.43ZM223.11,385.32l.03-7.17c.03-8.25,6.95-14.81,15.39-14.98l5.59.02c7.24.03,12.97,4.85,15,11.64l.06-26.92c-.12-.21-.26-.04-.39.21-2.56,5.05-7.7,8.38-13.55,8.54-2.07.06-3.98.06-6.05,0-6.24-.17-11.58-3.9-13.99-9.41-2.56,5.75-8.06,9.4-14.36,9.42l-5.37.02c-6.89-.14-12.82-4.5-14.81-10.93-.16-.37-.21-.45-.37-.04-2.01,6.5-8,10.96-14.96,10.96h-5.15c-7.85,0-14.52-6.13-15.44-13.14-.03-.26-.28-.51-.29-.41l-.07.47c-1.16,7.69-7.93,13.1-15.89,13.1h-4.25c-8.7,0-15.95-6.52-16.01-15.05l-.05-7h-59.33s-.08,7-.08,7c-.09,8.19-6.8,15.01-15.21,15.02h-5.81c-6.68,0-12.41-4.35-14.53-10.5-.09-.47-.12-.46-.18-.02-.02.28-.03.5-.03.74l.02,27.21c2.12-6.39,7.79-10.74,14.72-10.94h5.36c7.92.05,14.33,5.54,15.59,13.17,1.38-7.7,7.63-13.03,15.46-13.18l5.57.03c8.22.04,14.6,6.34,15.28,14.39.55-7.96,7.04-14.19,15.32-14.41h5.36c7.17.06,13.17,4.55,15.22,11.42,2.03-6.9,8.13-11.43,15.38-11.43h5.15c8.41.2,15.28,6.75,15.33,14.98l.04,7.17h56.3ZM304.63,385.32v-7.16c.19-8.26,6.93-14.8,15.42-14.99l5.58.02c8.15.03,14.5,6.15,15.36,14.02,1.01-7.96,7.18-13.71,15.25-14.04l5.81.02c7.28.03,12.98,4.92,14.96,11.51l.05-40.04h-21.98s-.03,6.78-.03,6.78c-.03,8.43-6.92,15.16-15.57,15.26l-5.34-.02c-8.18-.03-14.49-6.03-15.49-14.07-.79,7.81-7.06,13.75-15.13,14.08h-5.81c-8.04-.04-14.09-5.87-15.4-13.3l-.07,41.93h22.39ZM74.28,419.74l5.17.02c8.27.03,14.8,6.17,15.56,14.3.62-7.94,7.13-14.3,15.37-14.3h5.67c8.23,0,15.16,6.57,15.25,14.64l.08,7.5h58.59s.07-7.05.07-7.05c.08-8.28,6.85-14.87,15.31-15.1l5.66.02c6.24.02,11.67,3.74,14.2,9.44,2.38-5.62,7.92-9.33,14.25-9.46h5.5c6.2.15,11.45,3.58,14.19,9.18l-.03-27.27c-2.06,6.71-7.64,11.56-14.77,11.6l-6.06.03c-8.23-.29-15.07-6.65-15.14-14.71l-.06-7.33h-56.28s-.06,7.34-.06,7.34c-.06,8.12-7.02,14.51-15.31,14.71l-5.62-.02c-7.07-.03-12.9-4.66-14.92-11.38-2.09,6.94-8.18,11.43-15.43,11.41l-4.92-.02c-8.34-.03-14.95-6.35-15.54-14.36-.73,8.22-7.36,14.38-15.73,14.37h-5.13c-7.79-.02-14.05-5.47-15.44-13.09-1.38,7.55-7.58,12.92-15.38,13.09h-5.15c-7.07-.02-12.96-4.38-15.16-10.92v28.25c2.24-6.49,8-10.78,14.99-10.87h5.45c7.86.22,14.01,5.81,15.22,13.15,1.42-7.77,7.72-13.04,15.58-13.16ZM377.05,441.9v-39.63c-.15-.49-.21-.56-.26-.04-1.96,6.48-7.84,10.88-14.74,11.06-2.15-.01-4.13.07-6.23-.05-7.88-.45-13.8-6.18-14.83-13.94-.89,7.85-7.22,13.97-15.35,13.97h-5.59c-8.46.01-15.19-6.7-15.39-14.91l-.03-7.11h-22.37s.07,41.94.07,41.94c1.28-7.69,7.41-13.17,15.29-13.43h5.82c8.11.29,14.46,6.26,15.22,14.14.96-8.02,7.22-14.11,15.36-14.12h5.64c8.49-.01,15.29,6.78,15.39,15.07l.08,7.06h21.94ZM22.99,460.49l.04,17.08h236.15s-.05-16.83-.05-16.83c-2.76,5.52-7.93,8.97-14.13,9.11h-5.37c-6.41-.05-11.98-3.75-14.43-9.44-2.56,5.77-8.06,9.44-14.37,9.43h-5.36c-8.63,0-15.38-6.89-15.46-15.25l-.07-6.78h-58.62s-.04,7.44-.04,7.44c-.05,8.18-7.24,14.62-15.59,14.6h-5.15c-8.3-.02-14.89-6.29-15.54-14.27-.79,8.19-7.4,14.21-15.73,14.27h-5.12c-7.84-.14-14.13-5.53-15.46-13.22-1.19,7.44-7.37,13.19-15.14,13.19h-5.81c-6.89,0-12.72-4.63-14.65-10.91l-.09,1.56ZM297.58,469.87c-7.91-.28-13.99-5.79-15.24-13.37l-.09,21.08h94.8s0-29.75,0-29.75h-21.98s-.03,6.79-.03,6.79c-.03,8.33-6.79,15.05-15.35,15.25l-4.9.02c-8.44.03-15.14-5.78-16.15-14.11-.78,7.71-6.92,14-14.91,14.05l-6.16.04Z"/>
  </g>
</svg>