<?xml version="1.0" encoding="UTF-8"?>
<svg id="Layer_1" data-name="Layer 1" xmlns="http://www.w3.org/2000/svg" viewBox="0 0 588.07 511.44">
  <defs>
    <style>
      .cls-1 {
        fill: #0b0b0b;
      }

      .cls-2 {
        fill: #cccccb;
      }

      .cls-3 {
        fill: #f1f2f2;
      }

      .cls-4 {
        fill: #fefefe;
      }

      .cls-5 {
        fill: #fff;
      }

      .cls-6 {
        fill: #fdfdfd;
      }

      .cls-7 {
        fill: #ffcd05;
      }

      .cls-8 {
        fill: #0f1031;
      }

      .cls-9 {
        fill: #fbfaf3;
      }
    </style>
  </defs>
  <g>
    <path class="cls-8" d="M331.55,414.86c-.15.22-.29.45-.43.68-.16.26-.32.51-.49.76-6.17,9.2-14.56,14.27-24.95,15.06-4.67.35-9.63.99-15.62,1.99-9.6,1.61-17.59,6.91-24.14,11.88-16.45,12.49-28.48,26.52-36.78,42.9-.18.36-.38.72-.56,1.05l-.58,1.08-.77.13c-2.52.42-5.24.63-8.08.63-19.92,0-45.72-10.43-54.3-29.77l-.15-.33v-.36c.05-1.4.9-2.21,1.55-2.76-15.06-5.32-27.34-12.64-37.46-22.34l-16.3,9.68-.7-.25c-2.44-.85-4.88-1.69-7.33-2.53-5.96-2.04-12.12-4.16-18.1-6.49-2.14-.83-4.31-1.22-6.83-1.22-1.03,0-2.12.06-3.35.2-5.63.61-11.46.92-17.35.92s-11.74-.29-17.82-.88c-11.3-1.08-22.85-3.48-34.32-7.12-1.21-.38-2.41-.76-3.71-1.65l-1.04-.71,3.06-8.18c1.91-5.11,3.83-10.23,5.76-15.34,13.54-35.89,30.73-70.97,51.1-104.26,5.29-8.65,10.68-16.92,16.03-24.57,2.05-2.94,3.26-6.17,4.05-10.82l.77-4.54c1.46-8.65,2.97-17.6,4.74-26.35,2.69-13.29,9.89-24.59,21.4-33.58,21.03-16.41,46.04-35.74,72.07-54.65,25.72-18.69,49.41-35.22,72.41-50.55,9.2-6.13,17.99-9.55,26.87-10.47,1.11-.11,2.01-.55,3.29-1.31,34.04-20.3,70.14-37.99,107.31-52.56,25.91-10.16,52.92-19.09,80.27-26.53.35-.1.67-.11.9-.11.15,0,.32,0,.53.02.24.01.53.02.9.02h1.34l.23,1.32c6.41,36.11,7.12,73.4,2.11,110.83.13.02.27.03.44.03.24,0,.49-.02.73-.03.31-.02.61-.04.91-.04,8.79.08,15.85,3.83,21.06,11.15,23.74,33.32,44.78,68.33,62.53,104.04,3.87,7.78,3.86,15.63-.01,23.33-3.5,6.96-6.97,13.8-10.31,20.34l-.19.38c-.5,1-1.08,2.17-2.21,3.15l36.44,57.96v101.05l-1.43.15c-.2.02-.4.03-.59.03-1.7,0-2.99-.77-4.03-1.38-.25-.15-.49-.29-.74-.43-10.76-5.71-23.07-9.06-37.63-10.22-3.89-.31-7.82-.47-11.68-.47-24.68,0-49.07,6.53-72.46,19.4-2.39,1.31-4.79,2.6-7.19,3.89-6.67,3.58-13.57,7.28-20.01,11.5-17.95,11.76-33.22,25.97-45.39,42.24-1.04,1.39-2.09,2.72-3.3,4.26-.59.75-1.21,1.53-1.87,2.38l-1.55,1.99-47.03-93.61ZM186.2,400.73c3.13,10.11,7.59,19.3,13.58,27.99.38-.32.71-.62.98-.97-2.28-7.65-2.94-14.78-2.02-21.76l.16-1.18,1.18-.18c.61-.1,1.23-.15,1.83-.15,1.1,0,2.18.16,3.31.48,5.42,1.54,10.27,3.59,14.77,6.24l68.62-59.57v-11.58l-67.11,43.34-.26.06c-.55.14-1.1.21-1.68.21-.88,0-1.67-.16-2.42-.31-.59-.12-1.14-.23-1.71-.25l-29.23,17.63Z"/>
    <path class="cls-5" d="M471.97,3.2c.32,0,.75.04,1.43.04,6.57,37.04,7.04,74.23,1.95,111.46.71.6,1.44.72,2.17.72.56,0,1.11-.08,1.64-.08.02,0,.03,0,.05,0,8.4.08,14.94,3.78,19.71,10.48,23.5,32.98,44.37,67.55,62.4,103.82,3.59,7.23,3.66,14.61-.01,21.91-3.41,6.79-6.85,13.57-10.31,20.33-.71,1.39-1.31,2.88-3.16,3.8,12.41,19.74,24.69,39.27,37.02,58.88v99.15c-.15.02-.29.02-.43.02-1.62,0-2.8-.97-4.02-1.62-11.98-6.36-24.82-9.33-38.26-10.41-3.97-.32-7.91-.47-11.81-.47-25.89,0-50.19,6.92-73.23,19.6-9.16,5.04-18.53,9.69-27.31,15.45-17.72,11.61-33.1,25.65-45.79,42.62-1.54,2.06-3.16,4.06-5.16,6.61-15.75-31.34-31.26-62.23-46.95-93.46-1.28,1.04-1.88,2.26-2.62,3.37-5.68,8.47-13.34,13.56-23.74,14.35-5.28.4-10.54,1.13-15.77,2.01-9.46,1.59-17.39,6.53-24.84,12.18-15.52,11.79-28.36,25.93-37.23,43.45-.25.5-.53.99-.76,1.4-2.46.41-5.09.61-7.82.61-19.59,0-44.62-10.3-52.84-28.82.04-1.61,2.18-1.76,2.42-3.64-14.72-4.95-28.21-12.2-39.71-23.5-5.59,3.32-11.1,6.59-16.71,9.92-8.44-2.96-17.01-5.74-25.38-9-2.5-.97-4.94-1.33-7.41-1.33-1.16,0-2.33.08-3.52.21-5.73.62-11.45.91-17.18.91s-11.77-.31-17.66-.87c-11.59-1.11-22.9-3.53-33.98-7.05-1.1-.35-2.17-.68-3.29-1.45,2.79-7.43,5.57-14.89,8.38-22.34,13.69-36.28,30.74-70.92,50.97-103.99,5.09-8.31,10.4-16.5,15.98-24.49,2.49-3.56,3.62-7.34,4.32-11.46,1.75-10.3,3.43-20.61,5.5-30.84,2.73-13.5,10.03-24.21,20.82-32.63,23.76-18.54,47.65-36.91,72.03-54.62,23.8-17.29,47.87-34.2,72.36-50.51,7.95-5.3,16.5-9.21,26.15-10.21,1.51-.16,2.7-.78,3.94-1.52,34.25-20.43,69.96-37.89,107.08-52.45,26.22-10.28,52.94-19.08,80.11-26.48.14-.04.29-.05.48-.05M219.55,382.07c-1.48,0-2.79-.56-4.36-.56-.07,0-.14,0-.21,0-9.98,6.02-20.24,12.21-30.68,18.5,3.36,11.29,8.38,21.55,15.16,31.06,1.2-1.04,2.3-1.74,3.04-3.04-2.19-7.05-3.17-14.32-2.18-21.81.55-.09,1.07-.13,1.58-.13,1.02,0,1.96.16,2.87.42,5.38,1.53,10.51,3.67,15.37,6.68,23.48-20.39,46.86-40.68,70.05-60.81v-15.24c-23.5,15.18-46.58,30.08-69.35,44.79-.45.11-.88.16-1.29.16M471.97,0c-.31,0-.78.02-1.32.16-27.41,7.47-54.48,16.41-80.44,26.59-37.25,14.61-73.44,32.33-107.55,52.68-1.08.64-1.82,1.01-2.63,1.09-9.15.94-18.17,4.45-27.59,10.73-23.02,15.34-46.72,31.89-72.46,50.59-26.06,18.93-51.08,38.27-72.12,54.69-11.83,9.23-19.22,20.84-21.99,34.52-1.77,8.78-3.29,17.74-4.75,26.41l-.77,4.53c-.75,4.39-1.88,7.43-3.79,10.17-5.36,7.68-10.77,15.98-16.08,24.66-20.42,33.38-37.66,68.54-51.23,104.53-1.93,5.11-3.84,10.22-5.75,15.32l-2.63,7.03-.88,2.35,2.08,1.41c1.49,1.01,2.86,1.45,4.07,1.83l.05.02c11.57,3.67,23.23,6.09,34.65,7.18,6.12.59,12.17.88,17.97.88s11.84-.31,17.52-.93c1.17-.13,2.21-.19,3.18-.19,2.32,0,4.31.35,6.26,1.11,6.02,2.34,12.2,4.46,18.18,6.51,2.44.84,4.88,1.67,7.31,2.53l1.41.49,1.28-.76,10.07-5.98,4.55-2.7c9.63,8.99,21.15,15.92,35.03,21.09-.27.55-.46,1.2-.48,1.98l-.02.72.29.66c8.85,19.95,35.34,30.72,55.76,30.72,2.92,0,5.73-.22,8.34-.65l1.55-.26.74-1.38.2-.37c.19-.35.4-.72.59-1.11,8.18-16.16,20.06-30.01,36.32-42.35,6.39-4.85,14.17-10.02,23.43-11.57,5.95-1,10.87-1.63,15.48-1.98,10.57-.8,19.17-5.81,25.56-14.9l44.66,88.88,2.27,4.51,3.11-3.98c.66-.84,1.28-1.62,1.86-2.37,1.17-1.48,2.28-2.89,3.33-4.3,12.06-16.12,27.19-30.2,44.99-41.86,6.38-4.18,13.25-7.86,19.89-11.42,2.36-1.27,4.81-2.58,7.21-3.9,23.16-12.74,47.28-19.2,71.69-19.2,3.81,0,7.7.16,11.55.46,14.34,1.15,26.45,4.43,37.01,10.04.22.12.45.25.67.39,1.14.68,2.71,1.61,4.85,1.61.25,0,.5-.01.76-.04l2.87-.3v-102.95l-.49-.78-35.53-56.51c.75-.91,1.22-1.85,1.62-2.64l.19-.37c3.35-6.54,6.82-13.39,10.32-20.35,4.11-8.18,4.12-16.51.02-24.76-17.79-35.79-38.88-70.86-62.66-104.25-5.52-7.76-13.02-11.73-22.28-11.82h-.08c-.08,0-.17,0-.25,0,4.76-36.98,3.97-73.79-2.36-109.47l-.47-2.64h-2.68c-.34,0-.61-.01-.84-.02-.23,0-.42-.02-.6-.02h0ZM219.55,385.26c.71,0,1.39-.08,2.07-.25l.51-.13.44-.29,64.42-41.61v7.92l-29.72,25.8-37.49,32.55c-4.33-2.44-8.98-4.36-14.14-5.83-1.27-.36-2.5-.54-3.74-.54h0c-.68,0-1.38.06-2.08.16l-2.36.37-.31,2.37c-.73,5.55-.5,11.17.71,17.05-4.09-6.73-7.32-13.8-9.77-21.39l22.63-13.65,5.07-3.06c.31.04.65.11,1.02.18.79.16,1.69.34,2.73.34h0Z"/>
  </g>
  <path class="cls-2" d="M465.47,15.72c4.49,16.53,5.17,70.78,1.06,89.84-5.15,2.07-10.54,4.3-15.97,6.42-42.94,16.75-85.59,34.19-127.38,53.67-11.17,5.21-22.36,10.37-33.48,15.67-10.64,5.07-20.37,11.71-30.4,17.83-22.67,13.84-44.35,29.14-65.82,44.75-14.5,10.54-26.95,23.25-39.22,36.16-21.19,22.29-41.25,45.54-60.09,69.87-6.14,7.93-13.29,15.08-19.85,22.71-3.54,4.11-7.1,8.24-10.15,13.36,8.46,10.57,16.94,21.17,25.46,31.82-2.73,3.4-5.62,6.37-8.85,9.47-21.57.77-42.57-2.61-62.68-10.43-.83-1.98.25-3.41.76-4.78,15.04-40.12,33.84-78.37,56.83-114.54,10.46-16.46,21.66-32.42,33.63-47.83,33.05-42.55,71.01-80.11,113.61-113.08,33.58-25.99,69.3-48.55,107.07-67.9,29.57-15.14,60.06-28.16,91.41-39.18,13.5-4.74,27.18-8.88,40.81-13.16,1.06-.33,2.17-.46,3.24-.68Z"/>
  <path class="cls-2" d="M415.11,137.02c10.37-4.03,20.21-7.85,30.11-11.7,1.28.84,1.84,2.17,2.58,3.34,15.82,25.12,31.63,50.24,47.45,75.36,18.34,29.13,36.66,58.27,55,87.41,8.93,14.18,17.86,28.36,26.81,42.53,1.09,1.73,1.8,3.43,1.79,5.59-.07,27.18-.05,54.36-.05,81.54,0,.71-.07,1.42-.13,2.63-30.64-11.62-61.32-11.79-92.38-1.67-4.3-6.59-8.59-13.16-13.06-20,4.18-2.59,8.09-5.15,11.71-8.13,13.28-10.93,22.06-24.85,26.54-41.3,7.3-26.86,3.25-52.08-12.94-74.82-11.72-16.45-27.75-26.97-47.84-30.12-21.8-3.41-41.23,2.63-57.79,17.15-15.49,13.58-24.06,30.91-27.32,51.22-1.73,10.82-2.84,21.61-2.45,32.54.7,19.59,5.1,38.25,14.45,55.61.68,1.26,1.34,2.54,1.98,3.82.25.51.42,1.06.63,1.61-.55,1.65-1.08,3.27-1.83,5.52-26.4-7.52-52.63-15.72-79.33-23.42v-76.09c14.57,2.61,28.71,5.94,43.35,8.2,7.64-31.47,25.02-55.67,52.17-72.63,27.22-16.99,56.34-21.38,87.36-11.6.09-.27.17-.53.26-.8-22.21-33.71-44.42-67.41-67.08-101.81Z"/>
  <path class="cls-2" d="M168.92,318.24l75.24-48.25c.56-.36,1.25.22,1,.84l-12.93,30.93c-.37.9.15,1.91,1.1,2.12l57.75,12.9c.61.14,1.05.68,1.05,1.31v7.3c0,1.46-.74,2.83-1.96,3.63l-70.75,46.43c-1.22.8-2.68,1.13-4.12.93l-67.5-9.26c-.73-1.33-.63-2.65.02-3.77l21.1-45.1Z"/>
  <path class="cls-2" d="M113.54,439.31c-9.45-3.34-18.81-6.65-28.57-10.1,3.53-3.78,6.74-7.22,10.3-11.03-8.51-10.62-16.98-21.2-25.55-31.89,2.17-2.54,4.88-4.18,7.33-6.1,14.65-11.54,29.06-23.36,43.54-35.1,8.54-6.92,17.9-12.83,26.85-19.16,1.39,1.26-.56,2.22.31,3.53,4.58-2.05,8.39-5.53,13.81-8.15-7.91,17.12-15.49,33.51-23.22,50.22,20.19,2.6,39.88,5.14,59.56,7.68.1.29.2.58.3.86-28.18,19.72-56.36,39.44-84.67,59.24Z"/>
  <path class="cls-2" d="M292.77,396.16c11.73,3.57,22.92,6.97,34.15,10.39.56,1.91-.88,2.97-1.62,4.25-4.84,8.29-12.08,13.27-21.64,13.41-20.28.31-36.61,9.03-51.11,22.35-11.39,10.47-21.48,21.93-28.72,35.72-.26.49-.64.93-.92,1.34-18.62,1.25-41.68-8.46-49.04-21.63.06-1.34,1.12-1.89,2.01-2.6.78-.62,1.5-1.32,2.4-2.13,16.47,4.17,33.13,4.13,49.96,1.16.31-1.48-1.19-1.86-2.12-2.56-7.61-5.69-14.87-11.77-20.93-19.15-.36-.44-.69-.9-1.3-1.7,29.5-25.6,58.94-51.15,88.87-77.12v38.28Z"/>
  <path class="cls-8" d="M550.28,222.25c3.03,5.42,5.72,11.24,5.4,17.88-.11,2.2-.46,4.35-1.22,6.28-2.37,5.98-3.86,12.33-7.61,18.27l-83.49-131.8c-1.59-2.85-2.5-5.77-1.57-9.09.7-.64,1.54-1.32,2.56-1.2,6.64.78,13.42,1.06,19.87,2.65,5.25,1.29,10.17,4.43,13.14,9.11l52.92,87.91Z"/>
  <path class="cls-7" d="M158.15,316.75c3.57-8.45,6.72-15.94,9.9-23.42,4.31-10.15,8.75-20.25,12.91-30.47,1.14-2.8,2.82-4.89,5.15-6.66,12.32-9.41,24.79-18.62,37.54-27.45,17.46-12.09,35.29-23.61,53.6-34.39.61-.36,1.25-.66,2.17-1.15-.23,3.44-2.11,6.06-3.31,8.86-7.32,16.97-14.79,33.86-22.19,50.79-.76,1.74-1.65,3.21-3.34,4.31-30.4,19.57-60.76,39.2-91.12,58.81-.12.08-.25.15-1.3.78Z"/>
  <path class="cls-4" d="M218.63,454.25c-34.35,5.32-66.3-5.48-83.94-21,14.77-9.95,29.46-19.85,44.49-29.98,4.25,10.12,9.31,19.5,15.84,28.03,6.57,8.58,14.19,16.11,23.62,22.95Z"/>
  <path class="cls-3" d="M335.24,314c11.02-33.93,32.86-58.49,64.93-73.97,3.8-1.83,7.63-3.89,12.23-3.87-36.97,16.35-62.2,43.05-73.65,82.48-32.54-6.38-64.89-12.73-97.02-19.03-.66-1.73.38-2.61.74-3.63.37-1.04.58-2.25,1.94-3.39,29.96,7.06,60.23,14.2,90.83,21.41Z"/>
  <path class="cls-5" d="M108.78,207.38c.88.43.75,1.11.39,1.78-5.27,9.92-5.51,20.6-4.79,31.43-1.7,3.56-4.78,6.04-7.16,9.08-2.02,2.58-4.17,5.07-6.64,8.04-.2-4.09.97-7.43,1.55-10.84.94-5.49,1.76-11.02,3.07-16.43,2.19-9,7.17-16.48,13.57-23.06Z"/>
  <path class="cls-8" d="M506.24,308.18c-.05-.28-.11-.58-.25-.82-3.28-5.9-4.13-12.84-8.13-18.48-3.55-5.01-6.01-10.81-10.77-14.95-2.6-2.27-4.45-5.49-8.09-6.47-3.6-4.94-9.53-6.34-14.38-9.36-.76-.48-1.95-.27-2.94-.39-2.5-1.96-5.3-3.26-8.5-3.38-3.02-.11-5.99-.48-8.89-1.22-2.01-.51-4.05-.61-5.96-.24-3.93.77-7.89,1.09-11.85,1.57-3.44.42-6.92,1.32-9.93,3.32-3.53,1.15-6.91,2.74-9.93,4.8-7.71,5.27-14.66,11.22-20.2,19.05-4.79,6.79-8.3,13.99-11.22,21.62-1.19,3.09-1.26,6.49-2.28,9.54-1.46,4.37-2.14,8.89-2.59,13.31-.86,8.42-.31,16.95-.45,25.42-.11,6.53.96,12.9,2.21,19.15,1.54,7.68,4.49,15.06,7.32,22.43,2.08,5.42,5.53,10.09,7.79,15.28-1.9,4.63-1.88,9.68-4.63,14.46-13.42-2.98-26.38-7.83-39.67-11.23-.77,1.66-.65,2.86-.02,4.08,3.41,6.6,6.82,13.2,10.19,19.82,1.45,2.86,3.33,5.61,4.5,8.46,2.57,6.24,6.24,11.88,8.91,18.03,1.73,3.98,3.76,7.84,5.72,11.72,2.32,4.6,4.69,9.17,6.9,13.48,3.38.46,3.21-2.49,4.49-3.76,8.04-8.02,15.52-16.59,24.8-23.3,9.39-6.79,18.4-14.11,28.87-19.29,4.4-2.18,8.56-4.9,13.09-6.72,7.57-3.04,14.91-6.61,22.67-9.22,1.79-.6,3.68-1.27,6.22-2.09-2.68-3.94-5.45-7.43-7.56-11.27-2.15-3.9-5.29-7.26-6.93-11.22,4.12-4.29,9.09-6,13.76-8.7.15-.53.39-1.34.61-2.11,4.17-1.88,9.08-6.75,10.61-10.48.8-.24,1.61-.47,2.32-.68.93-1.05.77-2.35,1.64-3.47,8.34-10.67,12.3-23.24,14.15-36.37,1.42-10.1.23-20.29-1.58-30.34ZM498.56,341.37c-3.13,16.19-10.69,29.62-23.14,40.17-11.01,9.34-23.64,14.09-38.48,13.44-9.21-.4-17.49-2.88-25.34-7.13-6.46-3.5-11.58-8.62-16.64-14.03-10.63-11.36-14.64-25.42-16.56-39.89-2.06-15.52,1.51-30.59,9.47-44.27,3.98-6.84,8.61-13.34,15.01-18.15,5.03-3.78,10.07-7.69,16.26-9.6,1.18-.37,2.23-1.13,2.94-2.23.91.66,1.95.48,2.98.31,10.66-1.86,21.25-2.4,31.64,1.49.92.34,1.92.58,2.79-.08.03.06.05.11.08.16,10.2,5.91,20.34,11.7,27.19,21.97,5.76,8.65,9.63,17.91,11.75,27.98,2.09,9.95,2.03,19.79.08,29.89Z"/>
  <path class="cls-5" d="M205.67,426.13c-2.09-5.14-2.65-10.12-2.02-15.54,5.2-.03,9.24,2.47,13.71,5.11-3.78,3.83-7.59,7.13-11.69,10.43Z"/>
  <path class="cls-8" d="M340.5,124.75c-1.99-1.86-2.12-3.77-1.63-6.07,2.16-10.05,4.07-20.15,6.64-30.11.1-.41.36-.82-.29-1.35C210.21,158.12,108.96,262.88,36.72,397.06c-1.23-2.21,0-3.4.47-4.56,6.72-16.78,15.16-32.72,24.1-48.41,14.88-26.09,31.76-50.86,50.19-74.53,26.98-34.66,57.1-66.37,90.34-95.16,36.5-31.61,75.91-58.94,118.25-82.07,29.44-16.09,59.9-29.98,91.56-41.14,11.59-4.09,23.33-7.7,35.29-10.55,1-.24,1.96-.43,3.5.07-7.09,3.55-14.38,5.52-21.18,8.52-.32,8.12-2.93,15.74-4.32,23.58-.35,1.97-1.06,3.88-1.31,5.85-1.16,9.05-6.69,14.9-14.48,18.43-20.33,9.22-40.84,18.04-61.27,27.06-2.36,1.04-4.73.97-7.35.59Z"/>
  <path class="cls-5" d="M421.79,259.49c5.35-1.63,10.96-2.16,16.43-2.27,6.48-.14,13.11.38,19.21,3.22.78.36,1.47.93,2.4.66,4.48,1.12,8.23,3.79,12,6.2,3.74,2.39,7.27,5.36,10.21,8.68,6.28,7.09,11.1,14.97,14.41,24.11,3.89,10.74,5.17,21.55,4.63,32.7-.31,6.36-2.04,12.55-3.78,18.71-1.24,4.39-3.47,8.36-5.23,12.47-1.4,3.27-4.39,6.06-6.63,9.1-2.15,2.92-4.81,5.43-7.13,8.23-1.2,1.45-3.25,2.5-4.91,3.71-6.89,5.01-14.58,9.29-22.9,10.36-9.35,1.2-18.98,1.98-28.42-1.72-4.85-1.91-9.56-3.87-14.05-6.47-4.31-2.5-8.59-5.56-11.47-9.22-2.94-3.73-6.95-6.86-8.74-11.54-.33-.88-.73-1.94-2.13-1.86.16-2.37-.85-4.05-1.78-5.84-2.54-4.88-3.61-10.28-5.17-15.5-1.87-6.25-1.68-12.68-1.83-19.1-.16-7.39,1.71-14.36,3.97-21.24.68-2.06,1.42-4.02,1.3-5.97,3.01-3.62,4.3-7.95,6.88-11.54,3.42-4.77,6.71-9.85,11.32-13.36,5.42-4.13,10.56-9.04,17.56-10.67,1.43-.33,2.32-1.73,3.84-1.81Z"/>
  <path class="cls-3" d="M281.97,332.36c-10.01,6.42-20.02,12.82-30.02,19.25-10.01,6.43-20.03,12.83-29.98,19.35-1.77,1.16-3.53,1.8-5.6,1.68-6-1.46-12.17-1.72-18.25-2.58-12.19-1.73-24.42-3.2-36.63-4.77-1.98-.25-3.96-.49-6.1-.75.39-2.43,1.63-4.34,2.82-6.86,20.36,2.6,40.79,5.21,61.35,7.83,20.9-13.51,41.8-27.02,63.15-40.82.33,3,1.19,5.43-.73,7.68Z"/>
  <path class="cls-5" d="M143.17,404.39c-.23,1.13-.57,2.11-1.73,2.75-4,2.23-12.02.22-14.83-3.88.76-2.73,3.17-2.73,5.35-3.11,2.93-.8,5.82-.6,8.55.69,1.42.67,3.3,1.23,2.65,3.55Z"/>
  <path class="cls-5" d="M164.75,387.99c-.47,1.12-1.34,1.71-2.45,2.18-4.46,1.88-11.04.12-14.03-3.87.06-2.07,1.43-2.49,3.17-2.48,1.84,0,3.68-.03,5.52-.05,4.45-1.24,7.18.24,7.8,4.22Z"/>
  <path class="cls-8" d="M143.17,404.39c-1.29-2.58-3.9-2.74-6.24-3.52-1.65-.55-3.32-.41-4.96-.72,6.23-2.61,13.48-.97,15.49,3.53-.46,1.69-1.89,1.83-3.24,2.08-.38-.49-.71-.93-1.05-1.37Z"/>
  <path class="cls-8" d="M164.75,387.99c-1.32-3.77-4.69-3.76-7.8-4.22-.73-.36-1.46-.71-2.23-1.09,7.17-1.68,12.33-.26,14.5,4.12-1.22,1.32-2.34,2.89-4.47,1.2Z"/>
  <path class="cls-3" d="M491.74,165.7c-3.4-1.99-5.75-5.01-7.74-8.31-4.45-7.35-8.94-14.68-13.25-22.11-1.37-2.37-3.33-4.8-1.84-7.84,1.59-1.21,3.08-.84,4.58-.2,10.84,4.66,21.39,9.75,29.2,20.12-7.65-5.4-15.17-9.85-23.43-12.49-1.62-.52-3.46.61-3.51,2.32-.07,2.52,1.51,4.67,2.49,6.35,2.84,4.89,4.97,8.64,7.3,12.48,2.1,3.46,4.28,6.35,6.21,9.69Z"/>
  <path class="cls-9" d="M266.19,206.33c.25,3.69-1.41,6.53-4.08,8.25-4.6,2.98-9.13,6.12-13.74,9.09-3.96,2.55-7.81,5.48-11.76,8.11-5.25,3.5-10.18,7.45-15.48,10.88-3.44,2.23-6.67,4.95-9.8,7.68-1.59,1.39-3.42,2.26-5.13,3.37-5.14,3.33-8.19,8.18-10.36,13.72-2.04,5.18-4.43,10.25-6.48,15.38-1.57,3.93-4.35,7.57-4.4,12.04-4.33,2.54-8.13,5.75-12.79,7.54-.8-.68-.73-1.74-.31-2.33,3.39-4.75,4.59-10.43,6.93-15.61,2.44-5.4,4.38-11.06,7.31-16.2,1.11-1.95,1.66-4.15,2.31-6.05,1.51-4.43,4.91-6.91,8.19-9.05,3.36-2.19,6.33-4.83,9.56-7.15,5.26-3.78,10.61-7.4,16.03-10.94,2.64-1.73,5.12-3.76,7.65-5.65,3.45-2.57,7.13-4.74,10.74-6.98,3.74-2.33,6.92-5.5,10.82-7.46,5.04-2.54,9.75-5.6,14.79-8.65Z"/>
  <path class="cls-2" d="M202.05,446.68c-13.3-7.71-25.17-17.05-36.04-28.36,3.59-3.17,6.82-6.25,11.67-8.04,3.71,6.26,6.02,13.28,10.45,19.14,4.46,5.9,8.94,11.76,13.92,17.26Z"/>
  <path class="cls-2" d="M415.7,55.44c1.54-.67,2.76-.49,4.02.36.84,1.11,1.06,2.31.66,3.88-1.87,7.18-3.47,14.44-5.38,21.61-1.51,5.68-5.64,9.4-10.7,11.7-16.81,7.61-33.74,14.96-50.66,22.3-2.22.96-4.79,2.15-7.17-.82,3.59-2.22,7.34-3.47,10.93-5.07,13.46-6,26.93-11.98,40.41-17.93,7.03-3.1,11.54-8.01,12.97-15.87,1.23-6.72,3.22-13.31,4.92-20.16Z"/>
  <path class="cls-8" d="M492.55,322.62c.87,16.43-4.5,30.35-14.51,42.31-7.56,9.04-17.23,15.16-29.19,17.3-10.89,1.95-21.35.82-31.3-3.77-3.69-1.7-7.06-4.33-10.17-7.01-10.73-9.24-17.44-20.86-20.22-34.82-1.01-5.07-1.77-10.09-1.59-15.25.38-10.68,3.12-20.68,8.32-30.05,4.73-8.52,11.05-15.56,19.24-20.8,5.17-3.31,10.92-5.41,16.94-6.65,9.64-1.98,18.93-1.02,28,2.95,11.72,5.13,20.54,13.48,26.73,24.4,5.55,9.79,8.73,20.41,7.75,31.38Z"/>
  <path class="cls-6" d="M440.11,340.75c-6.16.28-10.36-2.55-13.46-6.98-4.56-6.51-4.13-15.8.72-22.1,6.3-8.19,16.96-8.58,23.61-.52,6.76,8.2,5.21,20.73-2.93,26.84-2.47,1.86-5.18,3.06-7.95,2.76Z"/>
  <path class="cls-3" d="M395.94,332.46c-5.88-21.44,3.45-47.29,23.94-58.35,15.37-8.3,35.1-5.63,48.2,6.83,5.7,5.42,10,11.77,12.7,19.19.29.81.77,1.56.2,2.64-1.3-2.14-2.51-4.22-3.8-6.23-7.31-11.35-17.61-18.5-30.95-20.31-12.76-1.73-24.12,2.26-33.6,11.04-11.15,10.32-16.14,23.41-16.67,38.38-.08,2.27-.01,4.55-.01,6.82Z"/>
  <path class="cls-1" d="M430.29,331.32c10.67-.85,14.99-4.82,17.98-16.25,4.79,5.53,3.75,14.64-2.18,19.22-5,3.86-11.75,2.71-15.8-2.97Z"/>
</svg>