<svg version="1.1" xmlns="http://www.w3.org/2000/svg" xmlns:xlink="http://www.w3.org/1999/xlink" width="32.30814" height="53.76978" viewBox="0,0,32.30814,53.76978"><g transform="translate(-212.41875,-156.48021)"><g data-paper-data="{&quot;isPaintingLayer&quot;:true}" fill-rule="nonzero" stroke="none" stroke-width="0.5" stroke-linecap="butt" stroke-linejoin="miter" stroke-miterlimit="10" stroke-dasharray="" stroke-dashoffset="0" style="mix-blend-mode: normal"><path d="M233.15263,195.88388c-0.88388,0.88388 -1.76777,0 -1.76777,0l-0.49699,-0.5078c-1.1811,-0.9645 -2.30633,-2.17988 -3.36913,-3.41667c0,1.68019 0,3.36039 0,5.04058c0,0.10525 0.01888,3.01622 -0.0419,3.66645c0.11199,0.16046 0.16231,0.29464 0.16231,0.29464c0.96261,2.60843 2.73453,4.84676 4.26965,7.14553l0.20994,0.89338c0,0 0,1.25 -1.25,1.25c-0.92176,0 -1.16381,-0.67971 -1.22737,-1.03669c-1.2456,-1.85386 -2.56914,-3.66642 -3.57648,-5.65205c-1.1347,1.82294 -2.62274,3.67357 -3.78309,5.12326c-0.08253,0.36887 -0.3495,0.96547 -1.21307,0.96547c-1.25,0 -1.25,-1.25 -1.25,-1.25l0.27391,-0.98087c1.63149,-2.03536 4.07622,-4.99163 4.98572,-7.4006c0.35546,-0.94151 -0.05963,-2.01216 -0.05963,-3.01853c0,-1.78907 0,-3.57815 0,-5.36722c-0.97579,0.67761 -1.81295,1.45903 -2.82345,2.18439l-0.64266,0.66672c0,0 -0.88388,0.88388 -1.76777,0c-0.88388,-0.88388 0,-1.76777 0,-1.76777l0.95734,-0.93328c1.37535,-0.97694 2.43939,-2.01771 3.90637,-2.86814c0,0 0.12469,-0.07125 0.3137,-0.12319c-1.98236,-0.33075 -4.02623,-1.02757 -5.22644,-2.35953c-5.21001,-5.78196 -0.70347,-18.1972 6.55613,-19.26941c0,0 1.23744,-0.17678 1.41421,1.06066c0.03718,0.26023 0.01181,0.47355 -0.05144,0.64819c4.09643,0.98786 9.67627,3.59277 11.19635,7.72292c2.61455,7.10392 -4.43159,12.28551 -10.52528,12.45164c1.26076,1.53844 2.65006,3.23144 4.1238,4.37794l0.70301,0.6922c0,0 0.88388,0.88388 0,1.76777zM224.24959,170.48531c-3.62416,2.23612 -4.45543,8.08889 -3.41355,12.01882c0.20414,0.77002 0.22498,1.67882 0.76561,2.2639c1.37988,1.49332 4.6583,1.78943 6.46709,1.78198c4.60043,0.02105 10.3195,-3.52823 8.41766,-9.14433c-1.09861,-3.24418 -6.42183,-5.444 -9.47658,-6.15706l-1.38603,0.19174c0,0 -1.15149,0.14394 -1.3742,-0.95504z" fill="#ff813d"/><path d="M218.06875,177.45c-0.46629,0 -0.75864,-0.17394 -0.94193,-0.39205c-1.15255,-0.00507 -2.30523,-0.00795 -3.45807,-0.00795c0,0 -1.25,0 -1.25,-1.25c0,-1.25 1.25,-1.25 1.25,-1.25c1.04674,0 2.09336,0.00237 3.13987,0.00661c-0.09244,-3.93672 -0.78669,-7.8158 -0.78987,-11.75661c-0.00159,-1.96124 -0.66672,-4.54474 1.50851,-5.72663c0.28153,-0.15297 2.82276,-0.12337 3.34149,-0.12337c3.81751,0 7.59177,-0.39893 11.4,-0.4c1.70406,-0.00048 4.15622,-0.48767 5.41405,1.11911c0.86038,1.09907 0.83313,4.19468 0.83595,5.53089c0.00812,3.84654 0.00062,7.69319 0.00004,11.53974c1.31665,0.0065 2.63329,0.01026 3.94996,0.01026l0.75485,-0.17573c0,0 1.22573,-0.24515 1.47087,0.98058c0.24515,1.22573 -0.98058,1.47087 -0.98058,1.47087l-1.24515,0.22427c-7.82107,0 -15.64108,-0.13281 -23.46664,-0.18198c-0.18379,0.21337 -0.47427,0.38198 -0.93336,0.38198z" fill="#ff3de4"/></g></g></svg>