<svg version="1.1" xmlns="http://www.w3.org/2000/svg" xmlns:xlink="http://www.w3.org/1999/xlink" width="69.9" height="55.03207" viewBox="0,0,69.9,55.03207"><g transform="translate(-199.21875,-140.95426)"><g data-paper-data="{&quot;isPaintingLayer&quot;:true}" fill="#fff13d" fill-rule="nonzero" stroke="none" stroke-width="0.5" stroke-linecap="butt" stroke-linejoin="miter" stroke-miterlimit="10" stroke-dasharray="" stroke-dashoffset="0" style="mix-blend-mode: normal"><path d="M229.32443,182.381c2.4663,-2.71686 7.84892,-2.00402 9.46721,1.06981c1.21751,2.31257 0.92711,5.04202 0.92711,7.54919c0,0.46667 0,0.93333 0,1.4v0.47496c3.00102,0.16702 6.00257,0.27604 9.00664,0.27632c1.80321,0.16393 3.53706,0.19872 5.34336,0.19872c0.93333,0 1.89087,-0.21115 2.8,0c0.11687,0.02714 0.29146,0.21981 0.39504,0.34767c-1.12309,-1.61934 -0.04213,-4.54378 -0.04504,-6.49767c-0.00956,-6.4092 -0.6,-12.79929 -0.6,-19.2c0,-0.46667 0,-0.93333 0,-1.4l-0.09623,-0.52298c-5.15697,-0.60068 -10.36836,-0.8562 -15.52289,-1.42893c-10.07181,0.00904 -20.11882,-0.54704 -30.17663,-0.59482l0.09261,0.65812c0.01862,8.81374 0.00411,17.62767 0.00319,26.44145c5.57976,0.03694 11.1397,0.42957 16.69235,0.85715c-0.04717,-2.95912 -0.23775,-7.47974 1.71329,-9.62899zM202.04388,163.99264l-0.69125,0.69125c-0.22621,0.22621 -0.53871,0.36612 -0.88388,0.36612c-0.69036,0 -1.25,-0.55964 -1.25,-1.25c0,-0.29902 0.105,-0.57352 0.28013,-0.78864l0.74871,-0.93589c2.17849,-3.75387 6.0586,-5.19418 9.5111,-7.50422c5.96396,-4.26083 12.31465,-7.38748 19.01041,-10.31705c2.89088,-1.26483 5.54213,-2.64742 8.6545,-3.27993c0,0 0.51677,-0.10335 0.94633,0.1597c0.43515,-0.01206 0.79219,0.22596 0.79219,0.22596l0.68749,0.46398c6.52883,5.22358 13.35893,10.09549 19.82255,15.41847c2.39358,1.97118 4.8213,3.69293 7.0024,5.7787l0.16161,-0.20778l1.78983,1.39209c0.29948,0.22836 0.49274,0.58891 0.49274,0.9946c0,0.69036 -0.55964,1.25 -1.25,1.25c-2.13333,0 -5.86667,0 -8,0c0,0 -0.0049,0 -0.01409,-0.00031l-0.56269,-0.01226c-0.0676,-0.00982 -0.13521,-0.01956 -0.20283,-0.02922l0.02961,0.19179c0,0.46667 0,0.93333 0,1.4c0,6.40048 0.60902,12.79029 0.6,19.2c-0.00286,2.03467 -0.35159,3.89474 -0.40314,5.91139c-0.01968,0.76971 0.41046,1.73344 -0.10254,2.30761c-0.52937,0.59249 -1.55499,0.34014 -2.34432,0.431c-2.64354,0.30429 -5.62885,0.03761 -8.25664,-0.20128c-12.84221,0.00119 -25.63791,-1.99872 -38.54336,-1.99872c0,0 -0.73966,0 -1.08103,-0.56897c-0.56897,-0.34137 -0.56897,-1.08103 -0.56897,-1.08103c0,-9.03706 -0.01853,-18.07436 0.00314,-27.11139l-0.19058,-1.31183c0,0 -0.02896,-0.20273 0.01862,-0.45579c-0.01776,-0.0854 -0.02849,-0.17865 -0.03074,-0.28047c-2.13618,0.30622 -4.13333,0.61637 -6.17532,1.15212z"/><path d="M214.41875,167.8c0,-1.25 1.25,-1.25 1.25,-1.25h0.8c3.28161,0.03232 5.12688,-1.24732 8.26331,0.59284c0.20633,2.213 0.46351,4.36621 0.58427,6.57949c0.07182,1.31637 0.6986,2.80984 -0.7167,3.89172c-1.05848,0.80913 -5.3097,0.3586 -6.65322,0.43353c-1.34177,0.07483 -2.8575,1.30381 -3.98967,0.57982c-0.69822,-0.44649 -0.42889,-1.60585 -0.53801,-2.42741c-0.32784,-2.4683 0.80357,-5.25673 0.8,-7.8c0,0 0,-1.25 1.25,-1.25c1.25,0 1.25,1.25 1.25,1.25c-0.00028,0.21544 -0.0019,0.43031 -0.00519,0.64471c-0.08137,0.00286 -0.16296,0.00466 -0.24481,0.00529h-0.8c0,0 -1.25,0 -1.25,-1.25z"/><path d="M243.78211,167.53919c0.33163,-0.18919 0.68664,-0.18919 0.68664,-0.18919h0.8c3.40159,0 7.75892,-0.81165 9.21656,2.76281c0.25922,1.77264 1.49871,6.69341 0.39749,8.21808c-1.61214,2.23206 -7.92563,0.56084 -10.08318,0.3172c-0.6873,-0.07761 -1.51061,0.18385 -2.06176,-0.23403c-1.92653,-1.46069 -0.91911,-7.70569 -0.91911,-9.81405c0,0 0,-1.25 1.25,-1.25c0.30703,0 0.53864,0.07541 0.71336,0.18919z"/></g></g></svg>